<mxfile host="app.diagrams.net" modified="2023-07-17T07:08:40.705Z" agent="Mozilla/5.0 (Macintosh; Intel Mac OS X 10.15; rv:102.0) Gecko/20100101 Firefox/102.0" etag="HL0_cITUTvZ8EJosA0O3" version="21.3.7" type="github" pages="3">
  <diagram name="Page-1" id="2DG4ext9aJnRy5Kuaa3M">
    <mxGraphModel dx="1674" dy="706" grid="1" gridSize="10" guides="1" tooltips="1" connect="1" arrows="0" fold="1" page="1" pageScale="1" pageWidth="2339" pageHeight="3300" math="0" shadow="0">
      <root>
        <mxCell id="0" />
        <mxCell id="1" parent="0" />
        <mxCell id="fWvoS4BiE9JrmjpniWhw-3" value="RDS" style="text;html=1;align=center;verticalAlign=middle;resizable=0;points=[];autosize=1;strokeColor=none;fillColor=none;" vertex="1" parent="1">
          <mxGeometry x="240" y="290" width="50" height="30" as="geometry" />
        </mxCell>
        <mxCell id="fWvoS4BiE9JrmjpniWhw-4" value="" style="sketch=0;points=[[0,0,0],[0.25,0,0],[0.5,0,0],[0.75,0,0],[1,0,0],[0,1,0],[0.25,1,0],[0.5,1,0],[0.75,1,0],[1,1,0],[0,0.25,0],[0,0.5,0],[0,0.75,0],[1,0.25,0],[1,0.5,0],[1,0.75,0]];outlineConnect=0;fontColor=#232F3E;gradientColor=#4D72F3;gradientDirection=north;fillColor=#3334B9;strokeColor=#ffffff;dashed=0;verticalLabelPosition=bottom;verticalAlign=top;align=center;html=1;fontSize=12;fontStyle=0;aspect=fixed;shape=mxgraph.aws4.resourceIcon;resIcon=mxgraph.aws4.rds;" vertex="1" parent="1">
          <mxGeometry x="220" y="200" width="80" height="80" as="geometry" />
        </mxCell>
        <mxCell id="fWvoS4BiE9JrmjpniWhw-5" value="&lt;div&gt;Canal或&lt;br&gt;&lt;/div&gt;&lt;div&gt;Debezium&lt;br&gt;&lt;/div&gt;" style="rounded=1;whiteSpace=wrap;html=1;" vertex="1" parent="1">
          <mxGeometry x="410" y="200" width="170" height="80" as="geometry" />
        </mxCell>
        <mxCell id="fWvoS4BiE9JrmjpniWhw-6" value="" style="sketch=0;points=[[0,0,0],[0.25,0,0],[0.5,0,0],[0.75,0,0],[1,0,0],[0,1,0],[0.25,1,0],[0.5,1,0],[0.75,1,0],[1,1,0],[0,0.25,0],[0,0.5,0],[0,0.75,0],[1,0.25,0],[1,0.5,0],[1,0.75,0]];outlineConnect=0;fontColor=#232F3E;gradientColor=#945DF2;gradientDirection=north;fillColor=#5A30B5;strokeColor=#ffffff;dashed=0;verticalLabelPosition=bottom;verticalAlign=top;align=center;html=1;fontSize=12;fontStyle=0;aspect=fixed;shape=mxgraph.aws4.resourceIcon;resIcon=mxgraph.aws4.managed_streaming_for_kafka;" vertex="1" parent="1">
          <mxGeometry x="680" y="201" width="78" height="78" as="geometry" />
        </mxCell>
        <mxCell id="fWvoS4BiE9JrmjpniWhw-7" value="MSK/Kafka" style="text;html=1;align=center;verticalAlign=middle;resizable=0;points=[];autosize=1;strokeColor=none;fillColor=none;" vertex="1" parent="1">
          <mxGeometry x="680" y="280" width="80" height="30" as="geometry" />
        </mxCell>
        <mxCell id="fWvoS4BiE9JrmjpniWhw-9" value="" style="outlineConnect=0;dashed=0;verticalLabelPosition=bottom;verticalAlign=top;align=center;html=1;shape=mxgraph.aws3.emr;fillColor=#F58534;gradientColor=none;" vertex="1" parent="1">
          <mxGeometry x="860" y="201" width="67.5" height="81" as="geometry" />
        </mxCell>
        <mxCell id="fWvoS4BiE9JrmjpniWhw-10" value="" style="sketch=0;points=[[0,0,0],[0.25,0,0],[0.5,0,0],[0.75,0,0],[1,0,0],[0,1,0],[0.25,1,0],[0.5,1,0],[0.75,1,0],[1,1,0],[0,0.25,0],[0,0.5,0],[0,0.75,0],[1,0.25,0],[1,0.5,0],[1,0.75,0]];outlineConnect=0;fontColor=#232F3E;gradientColor=#945DF2;gradientDirection=north;fillColor=#5A30B5;strokeColor=#ffffff;dashed=0;verticalLabelPosition=bottom;verticalAlign=top;align=center;html=1;fontSize=12;fontStyle=0;aspect=fixed;shape=mxgraph.aws4.resourceIcon;resIcon=mxgraph.aws4.redshift;" vertex="1" parent="1">
          <mxGeometry x="1010" y="202.5" width="78" height="78" as="geometry" />
        </mxCell>
        <mxCell id="fWvoS4BiE9JrmjpniWhw-11" value="" style="endArrow=classic;html=1;rounded=0;entryX=0;entryY=0.5;entryDx=0;entryDy=0;" edge="1" parent="1" source="fWvoS4BiE9JrmjpniWhw-4" target="fWvoS4BiE9JrmjpniWhw-5">
          <mxGeometry width="50" height="50" relative="1" as="geometry">
            <mxPoint x="320" y="240" as="sourcePoint" />
            <mxPoint x="390" y="220" as="targetPoint" />
          </mxGeometry>
        </mxCell>
        <mxCell id="fWvoS4BiE9JrmjpniWhw-12" value="&lt;font style=&quot;font-size: 15px;&quot;&gt;Binlog&lt;/font&gt;" style="edgeLabel;html=1;align=center;verticalAlign=middle;resizable=0;points=[];" vertex="1" connectable="0" parent="fWvoS4BiE9JrmjpniWhw-11">
          <mxGeometry x="0.0235" y="1" relative="1" as="geometry">
            <mxPoint as="offset" />
          </mxGeometry>
        </mxCell>
        <mxCell id="fWvoS4BiE9JrmjpniWhw-13" value="" style="endArrow=classic;html=1;rounded=0;exitX=1;exitY=0.5;exitDx=0;exitDy=0;entryX=0;entryY=0.5;entryDx=0;entryDy=0;entryPerimeter=0;" edge="1" parent="1" source="fWvoS4BiE9JrmjpniWhw-5" target="fWvoS4BiE9JrmjpniWhw-6">
          <mxGeometry width="50" height="50" relative="1" as="geometry">
            <mxPoint x="700" y="260" as="sourcePoint" />
            <mxPoint x="750" y="210" as="targetPoint" />
          </mxGeometry>
        </mxCell>
        <mxCell id="fWvoS4BiE9JrmjpniWhw-14" value="" style="endArrow=classic;html=1;rounded=0;exitX=1;exitY=0.5;exitDx=0;exitDy=0;" edge="1" parent="1">
          <mxGeometry width="50" height="50" relative="1" as="geometry">
            <mxPoint x="758" y="239.5" as="sourcePoint" />
            <mxPoint x="850" y="240" as="targetPoint" />
          </mxGeometry>
        </mxCell>
        <mxCell id="fWvoS4BiE9JrmjpniWhw-15" value="" style="endArrow=classic;html=1;rounded=0;exitX=1;exitY=0.5;exitDx=0;exitDy=0;" edge="1" parent="1">
          <mxGeometry width="50" height="50" relative="1" as="geometry">
            <mxPoint x="927.5" y="241" as="sourcePoint" />
            <mxPoint x="1010" y="242" as="targetPoint" />
          </mxGeometry>
        </mxCell>
        <mxCell id="fWvoS4BiE9JrmjpniWhw-16" value="EMR" style="text;html=1;align=center;verticalAlign=middle;resizable=0;points=[];autosize=1;strokeColor=none;fillColor=none;" vertex="1" parent="1">
          <mxGeometry x="868.75" y="283" width="50" height="30" as="geometry" />
        </mxCell>
        <mxCell id="fWvoS4BiE9JrmjpniWhw-17" value="Redshift" style="text;html=1;align=center;verticalAlign=middle;resizable=0;points=[];autosize=1;strokeColor=none;fillColor=none;" vertex="1" parent="1">
          <mxGeometry x="1014" y="280.5" width="70" height="30" as="geometry" />
        </mxCell>
      </root>
    </mxGraphModel>
  </diagram>
  <diagram id="fx6qpofFku2yD84eh3IQ" name="Page-2">
    <mxGraphModel dx="1674" dy="706" grid="1" gridSize="10" guides="1" tooltips="1" connect="1" arrows="1" fold="1" page="1" pageScale="1" pageWidth="2339" pageHeight="3300" math="0" shadow="0">
      <root>
        <mxCell id="0" />
        <mxCell id="1" parent="0" />
        <mxCell id="a6ExKIxHKAcp5drYe8KJ-2" value="" style="rounded=1;arcSize=10;fillColor=none;gradientColor=none;strokeWidth=2;" vertex="1" parent="1">
          <mxGeometry x="200" y="200" width="360" height="290" as="geometry" />
        </mxCell>
        <mxCell id="a6ExKIxHKAcp5drYe8KJ-3" value="阿里云" style="text;html=1;align=center;verticalAlign=middle;resizable=0;points=[];autosize=1;strokeColor=none;fillColor=none;" vertex="1" parent="1">
          <mxGeometry x="210" y="210" width="60" height="30" as="geometry" />
        </mxCell>
        <mxCell id="a6ExKIxHKAcp5drYe8KJ-5" value="" style="shape=image;verticalLabelPosition=bottom;labelBackgroundColor=default;verticalAlign=top;aspect=fixed;imageAspect=0;image=data:image/png,iVBORw0KGgoAAAANSUhEUgAAAKYAAACgCAYAAACG0RdqAAAAAXNSR0IArs4c6QAAAIZlWElmTU0AKgAAAAgABAEGAAMAAAABAAIAAAESAAMAAAABAAEAAAEoAAMAAAABAAIAAIdpAAQAAAABAAAAPgAAAAAABJKGAAcAAAASAAAAdKABAAMAAAABAAEAAKACAAQAAAABAAAApqADAAQAAAABAAAAoAAAAABBU0NJSQAAAFNjcmVlbnNob3SDD2uWAAADHWlUWHRYTUw6Y29tLmFkb2JlLnhtcAAAAAAAPHg6eG1wbWV0YSB4bWxuczp4PSJhZG9iZTpuczptZXRhLyIgeDp4bXB0az0iWE1QIENvcmUgNi4wLjAiPgogICA8cmRmOlJERiB4bWxuczpyZGY9Imh0dHA6Ly93d3cudzMub3JnLzE5OTkvMDIvMjItcmRmLXN5bnRheC1ucyMiPgogICAgICA8cmRmOkRlc2NyaXB0aW9uIHJkZjphYm91dD0iIgogICAgICAgICAgICB4bWxuczp0aWZmPSJodHRwOi8vbnMuYWRvYmUuY29tL3RpZmYvMS4wLyIKICAgICAgICAgICAgeG1sbnM6ZXhpZj0iaHR0cDovL25zLmFkb2JlLmNvbS9leGlmLzEuMC8iPgogICAgICAgICA8dGlmZjpDb21wcmVzc2lvbj4xPC90aWZmOkNvbXByZXNzaW9uPgogICAgICAgICA8dGlmZjpSZXNvbHV0aW9uVW5pdD4yPC90aWZmOlJlc29sdXRpb25Vbml0PgogICAgICAgICA8dGlmZjpPcmllbnRhdGlvbj4xPC90aWZmOk9yaWVudGF0aW9uPgogICAgICAgICA8dGlmZjpQaG90b21ldHJpY0ludGVycHJldGF0aW9uPjI8L3RpZmY6UGhvdG9tZXRyaWNJbnRlcnByZXRhdGlvbj4KICAgICAgICAgPGV4aWY6UGl4ZWxYRGltZW5zaW9uPjE2NjwvZXhpZjpQaXhlbFhEaW1lbnNpb24+CiAgICAgICAgIDxleGlmOkNvbG9yU3BhY2U+MTwvZXhpZjpDb2xvclNwYWNlPgogICAgICAgICA8ZXhpZjpVc2VyQ29tbWVudD5TY3JlZW5zaG90PC9leGlmOlVzZXJDb21tZW50PgogICAgICAgICA8ZXhpZjpQaXhlbFlEaW1lbnNpb24+MTYwPC9leGlmOlBpeGVsWURpbWVuc2lvbj4KICAgICAgPC9yZGY6RGVzY3JpcHRpb24+CiAgIDwvcmRmOlJERj4KPC94OnhtcG1ldGE+Ciz5XO4AABSCSURBVHgB7V1rrB1VFd6l3LTFtIUC1oS2SVGaiMEmrZWiMVIM1YhBSEiE8GhFEtSEIqggJQQUwYBKQjE8FNECSUlsaCW20RJ7UX4UUm6TiqIBpclNSSiPJuUmgFwCzje937DOcu+ZOefMnDOPtZN793vN3mt/51t77ZkzZ9r7UXAWTAMV08ARFRuPDcc0EGvAgGlAqKQGDJiVXBYblAHTMFBJDRgwK7ksNigDpmGgkhowYFZyWWxQBkzDQCU1YMCs5LLYoAyYhoFKauDISo6qBoPavm2b2717t1uxYoX78lln1WDE9RriNLtX3t2C7d271+0ZG3Pj4+MdHc8591y3dOnSjjLL9K4BA2ZO3U28+Zbb/MimBJBkSjInxKBs5WmnuXnz5uWUas1CGjBghjQjysGSW7dsiUsWLVrkvnrOOR3gm5ycdA8/9FACWmNPobwekwbMFMUdPHjQ3bVhQ9IiC3ASwOh0xbp1HQBOBFkiUwMGzICKtInO6+DA5D85ujN2jCCaJj9wGSsOaMCAqRRTFOvt27fPPTE6auZd6Tdv1oA5pSmY7d9v3VookLD3fHzHjoQ9ffvTvAvVtnYGzGjFpdkuAzzao8/aq7YNhL75thqYgza3RW0TfAvZtLJWAhNm+6lduxITO2gHRTL0oK9dFwC3DphVYa1uj6LqAqiixtkaYFZ1nyc/KGXsb4sCyqDltAKY2nRW6bYhPPeJiYmOEwEz7841GpiDdm76ZRXNnqevWuUWL17cr9ha9m8kMIft3PSLhCozfL9zy9u/ccDUrKMfuMirmMx2r//HTb78ghvZ97RzE89+0Hz2KW5y8alu5CMnOXfsRz8o7zLVdueoMcDEQhZ958aHJewJR/ZsdO7FP/qqO8tO/JKbXLbGjYyMdJZ3kdMftIsuvrgveV1ceqhNGwHMQZm+GJR/urWTIbOWL2JQd9pFfbPnMM9ds6ZYRn2tgQnn5sGNEXtNhUvWrCnNWegJlBwYzPsX1/fNdJI9IbrM+XLow4prCcyhODdP35/PfIdWEsz5lRtDtV2VD8pCdDWoghvXDpiSNQZ2IB05Om7Htf2rfvVtfZl0OYBB7anlNQeZrg0wh+ql9suWXNHIGXKnXsZcIfFQPqiFjDxdSC2AORTTBZb896hzr77UnbOTrm/nLtic1aLr+qFsbboeZXcdKg1MzQYDuxPSDUOCBfMcHXFdSgAmRWtnsM7PfVYWmBKUA7133A0ooz3j5JxFbmTzBcRGdlwiMHlxaWHqCs7KvyIGij1z9WrqvNwY5jsn+01+MtorRnd24sNzsGaFwudWneGgtzqHygMTysXTN3hsDWeJpYZdD+cTHwFx5BMCjB9bla9fya2gH+w3XzvwcslXKl98Jd9d5APg5NsRMN92bmTmLDf7qFnlayZ0BRyW4zajrMc9cZxTynvmsp5ptCkpAJCHDh0qSfrgxVaSMdPuLQOgpbFnFrC4Ps//2TmYfRHw4EZmwK3JggN0AadHg/Kl/fsLvtJgxVUSmD7GhFrAlggxOKfMe1xQ1L88jBaBd+Rv0V2gKbM/+Y/oYY5N5x0uSxsHZPfxtJEWnWW2T1iwQHepVb6SwAwxJgApA/IwYSEgy7Z50rlYj4KOPyFOxY+9sSwtLpAtwZL7I0bULJl2+brVVRKYaUAjazKGwgtzjpZ8If/6weGBOc9j/gu6FZnFkhz8G2+8wWRt40oC08eYBCJZk7EsJ0B7XY34ugBRViDQsrx4mG+2zZKZUQ/LkJcl58yZkyGt+tW18sqlOgFIgFMClPmDUfns2bN7e8ws2gdOnrfJ/zAwgMZnK5XzI8cGDz1+il0eKXU0yJ8BSwKQ3YQmMGYlgeljTCwMwYi0D5CyDdgT7WeOHNk1QOPr42EL/BGA2nFBno+xsQ0GMNWu4zgJ5T2EXo+AwJh1B2clgRnaYxKMWGOCVJahHHlZh7PPntkTAjUgUaZDnja6T0q+V0BSZN1BiXnUbo8J0CEQkMwz9tVx7xkCfCywAv/o3PTrbdses6TF9AGIQGQsWVGCEWldx/pK3DnCYDyhX5aUIo0xpTYKTKftMXkZCVCWkTV1HcvRDnUAgQ/8lDPIOHTnpp8xNIExK2nKQ6Ah4LBoBBvKZFrXIe/rN2zzTrNdxgMXxphY9RKCjzEJPsYSbEzrOuYxRKbZFmVIA6ChDwLalBHA2HnPJHu5vjFmL1rL0ccHFAKKMcQQbIxlHeqR99WxjPGg2BPz8j1wgbEWGYwxi9SmkOVjTFQTSEwTiIxZzxjtdJ0sYx3LCFDkiw5kyaLl+uQZY/q0UkCZjzEhFkAi6CSodFlaHeSwvUyzDH2LdI7KcG4w7rRgjJmmnT7qQowJkQQdgeQrS6vT7SmPMfuSPUMfEshJC+gHgJfh3KRdF3XGmFka6rHeBwYChjGBhEvosrQ6X/tQGeQQoGiTN9Bs93tQnvd6up0xptZIQXkfYxJsjAlGXFKXpdX52vvKpAzU5zHvwzDbGJsOYEx7gl1rpaA8zRF+XBRvOmMgYAhGlOuytDpfe18ZZGi5aew5LLONseuAX2TDb6kjUI+6TdXzlf1eORQHBpK/y4ivpC5cuDDWKUAjAYhCljGOG079K7qMD4ZgjMPYR8q5Mf3P555LAInv4lfpXfMcY9640sDkJOQbJvAiLbyRY+7cuaxOAJkUiETRgNTyhrWPFFOMH3HbMzYW/9wg9VP3d7fXAphcBPmGCTIC6xATNIx9dUWVUc6wgalZMu+vBHP8VY1rBUwoEXs5vtKa7CDZUyu6SJBSFuNhghKAPHDgQMKSpb1rXit0QPnaAZN60e82wn6KgcBhHnHRZZQ9aHDiKIhmG2Oo67uJqL9QXFtgYkJgT/lucukcccJFAlLKQnrQTo8223V2brg+objWwOSk4BzxR+tD5l2Civ36KaOMQTCmZEnOr+7ODfUXihsBTE7O5xz1Az5fX1yL5YMApWTJppptrp+MGwVMTEw7R8uWL4/PPgkmOfluy3ztywKnZsmmOTdyHXzpxgGTkyzLOaJ8gLSMPaYEJK7VJpakbhE3FpiYXNqdI9T7GDCtzFdXJGNKsz3QtyhDGRULjQYmdV2kcwSZBGhRoNQsecW6dW7evHkcfivjVgATK4tH6Z6LDqXxUAgC7xwRZHFh9E/nUe4rY/t+wSlZsq1mm7qUcWuAiUkDnG9Pvus2P7IpuWPSq3MEsPazxwRL6g9J21mytcCUE+/GOSqSMaXZxpkkPhhLly6VQ7N0pIFWMaZvxeXZp75zpAHJPONuzbg02213bnxrIctaD0yYdzwAfNeGDbFeeGdFPhhCIErFMZ0HnJIl0c+cG2ovHLcemFI1kj3pHMl6CVCks/aYACS+4sCnybVzgw+F72sk8pptTRcCTCq4rrFc/DwPhsj2IcYMOTd11VG/45Y6y5MuBJi4UL8Dr0p/Ki2Pc+QDpTbbkiX1HHktXd70POedFncFTJ/CKBwmCfVNCphTlnmX4NTOzcB+arDiSic2fHFo6F0Bk0IIUOSZljHbNSUOOUcEpWRJOk8Lpn5nh4vRFF30Og/qIS2WslOBKcFGgegs01JY09I4jMc73BnrO0cfP/nk5DlQzB1m++SojIH9GLPc4sMaAI4YiDXmU4HJRohlR6RDgYsg41DbqpdLUGI+CPjKML9zxPGDJfFYGr7Sy3a6L/Ps09SY85Rx2lxJcjoOAlMCMU1wW+vwYAj2lGDNpj9N3usaA0P8oFIGABsKkkGnvfPOO+/LAnYyYFITFveqATx2yCAZlNaUdTImcx5JUGogsgHrZWdLmwbyauCDt6XwzSmHf3WETOpjUGAueQc7gcgLaqCy3GLTQC8akO+CQn8fICkX2Iv3mBKETCNGMMakuizuVgO4ixYKuKUrgwbqEQQiGsm0AVKqzdJlaUADEteJTbk04TJNxixrQCa3HRrATQjeiGCMmcO04497TakNYC/ImLKhpU0D3WpAExtAKR8lzJIXOz8UQsZkPquz1ZsGQhoAliRDoh3zjFFGrx3MKdkz8coNjFCThbI1oJmTz7jqvWYCTAzIwFn2srRPPh5w0SHEmLJdDEzQrgXTQFka8IEzdC2a8449ZqixlZsGitCABqhkTsqHSQc4O0w5KxETubLM0qaBfjQgf0FD7zW13CAw9WZUd7S8aSBLA5IhkZZ5HB35GBOECOwFgWmMmaV2q8/SgGRItNV5X/9MU84Gvs5WZhrIowHJkGgv89qUy/NMtE1lTDPnUJGFsjQgTbk+zwwC0xizrOUwudSAvkUJcHILGQQmN6EUYrFpoGgNSMaEbJhzWukgMI0xi14Gk6c1IBkToDTG1Bqy/FA0IBlT7zGDX1kjYzbxdiWerMbb3cb27HGHXn8tXpRTondULv/UCnfe+Re42Ud1Pl2tVw1v59i+7Q/u2b17k6ozzlwdv6U47bcc8eUsvDR27JndSd+5xx7nli9b1tofAUgUGCUkY8bfkpSVTHOP2TRgAlS33XoLp+kAyPH9LyUABVDuvPNO71dyAazrvnd1B6gWLTihoz8AeuNNNyXymcDXfa+88sqO66CvBPe16693acCmrLrEeP+TDjzL5AE7zTkZk9/NbxVjSlCu/cZlHexIFt35+I4YQD5wgu0AJID35ptv7ngTMGTfe999Dv3xAoSvX3ppx5r8/Ke3x6DEB+FHP74lefk/WfS3v74/+cA0CZwdShAZacZR3No9JgAA4CAAlACONNn4pILpwHgw72A3HQAehG9efnkHKFEGMJ0bvY0DAe1wPQYwB5nxu9+/JgEl6jEGjAXXRcAWoY2BjNk6r/zJ0Z0x4MB2ms0ABG5ZLlmzJsYFwAkWZJBmSf7SL+sRS7kvvvB8UoVfy0XAtUNv7cB7jxAI4DjT8H8045imZsygKecesym6IROR1ULzAnBgbgEQ/B44w8KFC5mMf/E3ZG433H1P3O7Ek5Yk7efPnx+nAXYwqWRqNkJ79mVZ02OYc4ITjIlAp7s155hwcPIGeOcI8J4Z8FMnYDwEgBzOjC/gFyjwJ8EnGfaO22/rMPOUgfbsy7I2xWBMhNbd+eGxUD+LDYcI4ASbrr3oQvfDaE8qzX1INkANjxsBztGF53/N/eaBB4LgDslpUjmZknNq7R6TCugnhpkHOGHqEQAyHD19/rOfiUEq96H6OjD9ACeAjQ8JHCSA++yzz477pr21QstqQl575ZgTwNk6xixqMQHOX0T7SOwH4UnTvAOk6779rZgJQ9cCOB977LEYoOwLkKLv2rVrc7FvSHYTymHO6ZUHnR9uQumtNmHiRc5B7gex33xw48YYYDxSkh66vi4ASucJWwHeReLBP+t0v6blpTnXXnnQ+WmaV05mK2NxwaLrr78+2UcCnHlNM0AIBuY5Js9ayxhn1WRKc97aPSbuRyOMj49nrg+9cXrn6ABmg8MS2kfCskime2rXruQ66Ie/NLDyHJNHSknnFiVaucfEL50h4MENeVdGr7u8S3P6qlVJNX7dDEzIX8xNKnIktmzdGveVYE3rxqOTtDZ1r5NmnHORe8ygKecek53qHoPN6BHjLNEXANhf3XdvXAXPGyaagcCGoxI6w5RsinezM5CtYaZDHwp5d6gNPw8tzTj0pPeY02+44YabqEAZc485ffp0WVzr9MqVK93oX/7q/vX3Z93Y2DPRXKa5k5YsiU3s6M6dbv11P3DjkSMDAN/9y/vdDPGGErRDn1eiu0FbH3006jrNHX300e6YY46J+z+yaZO7+5573H/fejPeL9I0Q2HLP32q27Z9e3xMhHjunDnu2OOOc7NmzYpBviE6gtqy+Xexbr9z1VXxmOJMzf/JO2ecyowZM5iM45kzZ8Yx95gfinTy7nvvueBjb2gNcMo7GLGEmv/Tj5/p6YApf/KzO4Lzxl6RnrfuizycmKuvufb/+oMp5SNzvr58uMRXV8cyaUE4fj72hrw25wAnQxCYZMwmHhcBJHioA/vGV185fD8cjk7eH7UHuPFTKrz/DmWiP/ak0vxTyTJG3ydGR5Pbncd/eH78gDFuWzbNhGcBE3ohOAlKbiGDwESnJjIm5jXsgLfqyQ+8zg97fEVdvxtg4poEJ9JB54eMiUYWitWABCUk63yxV6umNDIlR8c9Ju/8BIFJSmVHi00DRWpAe+WQDXCCEBGCwDTGjPVj/waogVaeYw5Qv3apnBqQ5lyfYxpj5lSiNSteA9Kc2x6zeP2axII0YHvMghRpYnrXgDTjlGJ7TGrC4qFpQJpxDML2mENbCrtwmgZsj5mmHasbqAakOTfGHKjq7WJpGpDmHIyJYHd+0jRmdQPXABgTwe78DFz1dkGpAWnGUW57TKkdSw9NA9KMcxB2jklNWFwpDdg5ZqWWo72DkebcvPL24qByM5fm3PaYlVue9g7IGLO9a1/pmWvGxGDtHLPSS9aMwclvRPpmpBkTbewc06cpKytUA/JHTX2CNWPm9sp9wqzMNNCLBjR7SrakPJ5jwpynPsHODhabBnrRgAajlAG29IGTX4IMApObUCnM0qaBojQAUEpTTrn8EmTwxa1oyI0oY5TxZjvSCD7hh2sO/3A6PjXYazBmneUP66Vp+uC6Mub8iAHmEacxZuqbONCZoMwCJC+cteGFTAvt0QABilgGDUrsLxFoqTtMeT9vhOAA5MUtbRroRQMgw4QxCUq8R0cGNAKKJyYmkkeTZL3PlBtrSg21L02S0iwJTWimRJlmS5QljKkBiUoGgJP3MlnmAyTqaNI5KMbsZ3GzNSBBGSKoEHa4bYSGpr0fBapKvnVMA5WdfHvNkIdFuRabBogRzZg+toS2YsYkCGHOmTZVmgaK0ACBCJZkOo/ceI9JQIb2mRBExqRQzZwsR8xBhChbtrV0szQgmZE48M2QTMk6euPIA4dH+ECJMoLU15FlvpiDYYw2/KRYPDdWWZP1wHVn7MOILJOAZDmsduoek6BlB8Q+5tSOkWxvadMANaBZEuUamCTEDq+chegg08jLoIXJOkubBnwa0OSVhiEw5v8AsLtcV6bsnWsAAAAASUVORK5CYII=;" vertex="1" parent="1">
          <mxGeometry x="430" y="310" width="103.75" height="100" as="geometry" />
        </mxCell>
        <mxCell id="a6ExKIxHKAcp5drYe8KJ-6" value="" style="shape=image;verticalLabelPosition=bottom;labelBackgroundColor=default;verticalAlign=top;aspect=fixed;imageAspect=0;image=data:image/png,iVBORw0KGgoAAAANSUhEUgAAAXcAAAEiCAIAAACN4QXtAAAAAXNSR0IArs4c6QAAAJBlWElmTU0AKgAAAAgABgEGAAMAAAABAAIAAAESAAMAAAABAAEAAAEaAAUAAAABAAAAVgEbAAUAAAABAAAAXgEoAAMAAAABAAIAAIdpAAQAAAABAAAAZgAAAAAAAABIAAAAAQAAAEgAAAABAAOgAQADAAAAAQABAACgAgAEAAAAAQAAAXegAwAEAAAAAQAAASIAAAAAI5cEMgAAAAlwSFlzAAALEwAACxMBAJqcGAAAAm1pVFh0WE1MOmNvbS5hZG9iZS54bXAAAAAAADx4OnhtcG1ldGEgeG1sbnM6eD0iYWRvYmU6bnM6bWV0YS8iIHg6eG1wdGs9IlhNUCBDb3JlIDYuMC4wIj4KICAgPHJkZjpSREYgeG1sbnM6cmRmPSJodHRwOi8vd3d3LnczLm9yZy8xOTk5LzAyLzIyLXJkZi1zeW50YXgtbnMjIj4KICAgICAgPHJkZjpEZXNjcmlwdGlvbiByZGY6YWJvdXQ9IiIKICAgICAgICAgICAgeG1sbnM6dGlmZj0iaHR0cDovL25zLmFkb2JlLmNvbS90aWZmLzEuMC8iPgogICAgICAgICA8dGlmZjpSZXNvbHV0aW9uVW5pdD4yPC90aWZmOlJlc29sdXRpb25Vbml0PgogICAgICAgICA8dGlmZjpYUmVzb2x1dGlvbj43MjwvdGlmZjpYUmVzb2x1dGlvbj4KICAgICAgICAgPHRpZmY6WVJlc29sdXRpb24+NzI8L3RpZmY6WVJlc29sdXRpb24+CiAgICAgICAgIDx0aWZmOk9yaWVudGF0aW9uPjE8L3RpZmY6T3JpZW50YXRpb24+CiAgICAgICAgIDx0aWZmOkNvbXByZXNzaW9uPjE8L3RpZmY6Q29tcHJlc3Npb24+CiAgICAgICAgIDx0aWZmOlBob3RvbWV0cmljSW50ZXJwcmV0YXRpb24+MjwvdGlmZjpQaG90b21ldHJpY0ludGVycHJldGF0aW9uPgogICAgICA8L3JkZjpEZXNjcmlwdGlvbj4KICAgPC9yZGY6UkRGPgo8L3g6eG1wbWV0YT4KUeGkIgAAP39JREFUeAHtnW/MfUdx33+2cRK3dYmNGgUZixisyLKVuFaaBEHVRI2dWMJESoVkhINwKl4EqSUQVYi8qIyVF0WoCk5ShbxAjREYYSlKpGIkg+2qroplaBMXEJZfpBBk3KZKsCGWcNIY3M99xr+v55k9f/b8vefeZ65+ur85u7Ozs7O73zMzZ899LnjhhRfO5SctkBZICyxmgQsXk5yC0wJpgbTAzgKJMrkO0gJpgWUtkCizrH1TelogLZAok2sgLZAWWNYCiTLL2jelpwXSAokyuQbSAmmBZS2QKLOsfVN6WiAtkCiTayAtkBZY1gKJMsvaN6WnBdICiTK5BtICaYFlLZAos6x9U3paIC2QKJNrIC2QFljWAokyy9o3pacF0gKJMrkG0gJpgWUtkCizrH2PQ/p99933zNNPH8dYchTrW+CC/H2Z9Y1+QD0CLvfee+8TTzyBzjfedNMtt9xyQMqnqhuxQKLMRiZii2rgwjz4wANoBr5848knwZprrrnmp1/3uhtuuGGL6qZOW7XAy7aqWOq1Tws89thjn3/0UYOVW2+99bLLL0cbAx0Kn3rqqTe8/vVWuE8ts+8DsUD6MgcyUWup6UOkt99+e3Bbnn3uuXvuvtsCqLJ2LR2znwOzQKLMgU3Youriwnz07rvpgshILkzZY6OnU7JlSVrALJAokythZwG5MJWZF/g/98gjytpkVjiXUYcFEmU6jHMmqqbgxVBsOhMGzUEWFkiUKUxylgpmiX0q46yzZNcc6ykLJMqcMsfZuZAbwpCn53EzK3x2Vs6IkSbKjDDawTfxB2FmfCb91a997bP33x+efx+8sXIAky2QKDPZhAclwAPBQufrFoKwgzJzKnvKAokyp8xxxBdTsrxDzaJwrPKJ1VD5yX9YFkiUOaz5GqntLFneoX1nVnioxY6VP1HmWGf2xXHJreB6epZ3qLHICj/80EN5rGao3Y6MP1HmyCb01HA2kiLxntTP33zza6666pSWeXHsFkiUOc4Z9lnejWzsjUDecc73tkeVKLPt+Rmu3ZpZ3qHaKXzLrPBQ0x00f6LMQU9fVN7HJh2vO8Zm615nVnhde++/t0SZ/c/BLBoclpuQWeFZJv1QhCTKHMpMdem5eMrjK3947ro3d2kwqm6DyaNR48hGPRZIlOkx0MarfYi0SJYXfPnGF8598892drj+rUtgzeIQufEpPAPqJcoc6iQvneVF/mX//QMv4ouM9Iqrz73qp2bHmsMK92SMJCotkChTaahtsS2aQCVpculXP33ui59oHfMrrn72n9156SWXtDKMqvB+2WZT16NGdtYbJcoc2ApY/LZPiNSBL95aCwRQSztoXv2kV7NAosxqpp6ho0VTGM0hElq/4upnfvJ9l/2f/9yMPgtgjc8KL/Ti+AyTkSKqLZAoU22qvTL6aGL2LO8uRPqvd8QUDOM1fDn5MylcVbLNZadFIXUuJVNOjQUSZWqstE8e9vayf5ykLURqcVI6XJ7ZkzWLj32fE3uG+k6U2fRkK8vLX3ec8UftXhzzQHw5ZakpbU8J6r/wflxmhfvttT2ORJntzcmJRotneekFpNBZmNNmeObmj3T86cjW0AkhLR7QafGDrzIrPNhkW2qQKLOl2TjRZe0d1YY1bXixohcT5iazwsEgh3KZKLOtmVo2OjBAedVPPfuaN8bTLo1Yczr7u7PUZ97bkCRuxKOOvqaZXFFk9x/AnNZJtp7TAokyc1pziiyFSAiZ/0ftShApEYSOYSsPy5yACOo1HgVuyPiWSNQIQxOMlVnhCcbbQ9NEmT0Yvexyuae2zeiABi3nd5v5gYkW9Alj2aVsGs8NL/BqwrJ+XxhYXk6wQKLMBOPN0XTZXEPpVqBzzYZvdGo0XiT8wgd1VRLNUHXS9e6A3/kDOGXDESXLAfQIZbJJowUSZRrNskYht/1lf3m7ESnqg5fG5hhmkITyGVYfQo0wPaB277332l+by7PCIwy4dJNEmaUt3Cx/DW8/wEQ9OkjlIIHyERgRhIyQIH06icwKd5pnn5UXvf/9799n/2evb268H7377ocefPCv/uqvyPK+6U1vumTul5tfNOpfPn7u/375RXoWiEHWc0+fu/Cicz907YB5g5km0uTvXX7u6psGNK9mfeUrX/mGn/3Ziy644Atf+MLDDz/8/He/+6M/+qPVrZNxQQu8bEHZKbqwwMEkEYID4gdiaeAhP533zCv/+WVl8tjLnInm8fwtt9xyxRVXfP7RR/kjUN948snZ3/maSdOzJSZRZqX59lnejS/9Xe72NCjsjgL7X7QaDjQrWfmkmxtOPgboJGsWeTljzfEcfl+JMovPIZv2c488ckB/X/Gy+9/hjfLi2wY8VPJPrL74iZ2HUve0aPerEat/cGp484uscDo1q9s+dpgoEy0y7/UaWd55NQZK/Of6twpKdg+hHQDt6Lf+kedto1eLmIICaP6r73ynZYXtCVS+bBlMtM7lhet0cwZ7wYX5/Q9/mEQvYyfLy3LXdt2uNUjH2A+Jm4qnc8boj19zSvkASafqtnJB/PSbH/gAcRNAc+eddxJJbUWzM6NH+jKLTPXBZHnd6HfHdn06hkfORYp3B5RAj9iAJICpYHNSN0FaVvja66777P33ZwC1/pQkysxscx8ibTzLG0a++7k8/2k73Qum+LN2IE4fyuwlL+OHYvRrrroKjzKzwqVlli5JlJnNwgeX5T018jJWOlV96mL3huQf3/ZSUZ87s6+8zEsaOipkhfOssLPNUmSizDyW9QdPb7v99vi7CvN0MlCKuRiKbrpb457o0xQrqRJiNzofN9U/bzqd6PEy16SVFeZYDYkzvjMrvKj98+zvVPPiwthZXn7u5I233MJZ3u+/+OKpQudq/0PXPnv1L37/X37p3D+8ouvALs7I1x5Wn8/e/Lv9Q+BE7//+k91R4JPPJX//H3TI/5vnnrvkmcef+ZkPXvLqn1Aveyc4K/za17724u/7vjwrvPRc5HtMkyxMkM8B04M/+uUPwlS7G8Crf7Dd/SOek6y8cGN/YDIDqCWMnU+yx1uV1Wln7d717ncT7W/tQTXPjKrGFjIyfalcydyNl9jq/KcyxVur1XmxK/xvWWEeddOXnTxYodMz1UWizNTpJqT/Rz/8w1OlLNB+92tSn3kvHkePbJ+RwZEZ8uGc3kvsZGd6+/rMe+OTrJfa75nioPCrrrxyz0ocafeJMuMn9rKXv9waP//cc2ywDd6lOWK3C2rwVlo+O1zwx/CqHRmTN8CdQYdP/ItTfbWotH4xE4db+sy3v71+12ekx0SZ8RNdrsstAg3j4zETO7wJa3bvQOoz0JF5sd2rfkoCdudois8OyMj7VD7qKpovXQC+/OVf/MXSvZxx+fkke7YFgEeDrGeee+5ll1yyiSfZYWTsc1AAUPAOi3NkdqdaQpOaS6Qh1uSEo8Dg2je+cJnrokbeajzAX3mfWK33M9VRosw80w2yGMogDuJZO1Qyj+z5pLDh+QfcXP/W3R9LIXGjzyuuHp+9BrkClJzgSyxUX/smcDnTf1lzEhJlxltbeRlEGMQIa7jcrlODul/8xKlXlijxgc9Ak5w62guEbTU4smGlCzNwemdgT5QZb8TS35Y7Y0I3hDU8cg7uRhj3SUplhxd1PxljrXEKcIj646ze3oMyy1wmvixj136piTL9NqrhkBdTEmDN/gMoXBXefuwIZE6CqRd/Is9OwXR4N5bl/eafXdprmpPQDAv483u9jWZnAA13iJ9PkWa3bJ3ARJk6O/VxsYiNJRAGOrslvoWsMJla/tnDpo64xryebt+n2yDgFCB1kmYGiRh7N/uitenCLGreGuGJMjVWaubxeRnjaHRk1NiwZlBIorZzEieb/6UHQ3OKPi+r7Vcjztev839medexc28veV6m10StDN4DB1/gKx0Za2y1RnNrZfW3Cl2twrkqu1/A47AM/yxWqtcBfv5d/9adBNd2CwPEzvkgqX4mF+VMX2Ye8wpfECePRoUirIrLTQRQNnR7hn35m3dX5uYQ45y8K9D4ahIZYhujPxO0SwATIp1Hrt143R+ZapSz626ZT4ZIy9h1vNREmfG28y2FLBQapqhEhKogrHC9rDBZmG98QX+jmn3Y/WDoxbDOoMeP89y57obGu4OVk7Y4NbtTOR05oNPCJ15liDTRgAs1z4hpvGF9XsZ7KyZRJQIdKwdfIKyQbzb8SvGFvdP0mffS3SnnouNZ0hDbmI9zqsVX/nD3k3prQQyWzBDplP03c5G+zPip8HkZpJh7IkwJhF3CJkIdU0IANX9W2MKfsMl5/MzOdzkUqTGROIVcJ66TAqiXJJP6OR+UvVQ4mUoXZrIJlxWQvswM9vXuiYkTlIiwcuP0tEoWcWque/Ozv3TPLq0bPucTKBQ3+CCBufIywIfrYifgFVfvMsSBp1JyOxv4ki5Mu3m2UpMoM8NMCEoEGYHQpXHapdFqix7Qs2PNLkd73ZvDM6AZxlwv4uQhFGcCZ3fWDF+CR1mvV3KuZoGMmMab2udlAA4wQpARCLs0HvpTrfWtcgmZPYDa7fDus7/jzdDZMkOkTvOckcr0ZcZPtL+LCjhACpMoQh0IawKD2nqG2Z2aXacELGBNGUCdKDQuCd3aincLCNbmDpHQNEOkk+k6pK9Emdlmy2AlQIZJt6o2BuFRybAQ1rx4DO/00Gt/wfN8qx2+NP7C5vkUjD9Qc77RpP/pMX/UbpIF99Q4UWa84b/9rW/5xt4ToVzYAW1VAiBVlbBiAj0DrVr9Bd/9EHoXQDUma9zT7h559pQ6pHhpg6O0QAoGwfmjdj0zsuHqzMuMn5ynnnpKjcGFACUeUwKtSxFqboTKjeB7ibPClqxpOGVnT7vbUiq8bBmejssKb/0jkTMSOHQ+OJ1RcopaxwLpy8xjZ4MD74NIrq8ymipxGpvKPXNgo2p2p0ZKNhBAyelfC2a3r/wLvhkiNczLARalLzPDpMkTCWBhooN7Ei7hUXMRpRy1WsKpMT13v9GpX/CVVex8HeeDG3/BlxTMT76vwRtS8wlEujATjLetpoky4+eDvyppjeWANBKCDCEFrQQo0GJobO67ED37o24k75K1v/BB9vbuDxv4hAu0vzQl+D4JqZaAGFyYfFdAZj4CIiOm8ZMY/khYAAvkqgRM8Zeirdy+KQxsaq4qTwAHSwRQL56saXnajQK7D7WkYBZ4So3szPKemPiovhJl5pnOgBQIVQm08MIXqly1IsQmQlUirPlCWLNDEHCkxJpXXL3QKRiGw1iAGIj8HJkFEmXmmVBt/kAIJoxQLb2qytOBTfxiLgl42J/zDCNIsdeg7NVKOwXzCx+c/RQMfWaWNxj+yC4zLzN+QpWXQQSb3xAhEIIJX2s8vqSRzYsNDFT55lwCNIidHQJeStZcfvkSKRjTPB9UY4cj/qQvM35yfV6mDQVMOvvfCGMTM4WeDmy+VlWB8M2hFwqgdsmaBT4WIiXELGDabYlMlJlnPsLmR6hKoA0LfIloESVbWSUeEcYjTgj6WiIrTI8zftAQiEl8mdGkWxaVKDPP7MinKAk6MBTwWNPLRivxeBAxdVViPOLU5UJOzSzGQjceVCfEzGLMgxCSKDN+mkJexgRp/xth30IBeIzuZgu1ah4IsSHW06YJzLgMm/JrUCZfd7TZOVPfiTLjp7smLyNcsG6EBSo3QpfGoEsRobln8zRsdqlCJGwEaMyFGW/ubHmwFkiUmWfqbFcjq4Og1lCj5FHDRgbxC3RESGaQEBj2G0DRe7owTNCZ/STKzDP12tVthCGFfQeeUIhCgcEuhTVthFohIfBwSS27fZ7RDpGS+DLEWsfJmygzfl5r8jKSbhAgIBAKwFAW+togwfOroQg1VIkR9k3tmk6NuTDSP4kza4FEmfFTX5OXMena/FwarW3vGQI0iFnNewlJUFtPWC3fSzs1meW1ac1vs0CizDwroW3/l5jigUC0EaUQKw9saNxWIgklj6qMWM6pQXK+UT3PqjoWKYky88xk27ZXud/21mXY9p7BWomhjV8MItSdSkSoyhPzYg3SMgtjk5Xf3gKJMt4aw+jKvIz2uRG69LudjlUuwhjCJZyhoUrEqRIRqioJpE1/1J0hEqbOT5sFEmXaLNNfXpmXCaCgy7DhVW6EalWukjZCnKgeeFQVCGOjcIpTkyFS/1o52xyJMlPnXyflw8Yut7p60t62Eu18SaDcCssSVZWEMTcKlxwRoWuTBl5YeeX3kbkw3jmttECy1VggUabGSs08V1xxxTXXXPM7d931uUcegUNg0UEECNCebyuXqMBJd2WJMauJ51GhCGteCql0asCXY3Jh+KM3n73//ieeeIIJbZ7sLJ1ggQteeOGFCc3PelN2GhDz4AMPsDp/+nWv+5FXvxqLsHVtM5eE7KUqlRjhyz0d2MpLz+xpOHUpomxelsDc9ms1jFoeXNnwsErAF/7ijc3gz99882uuuuqw9D8IbRNlZpgmHqzoTshK9X8/u5QetrouRZRNKFFtB+HZAh1kdghRlTUJvyyDC3NMT6kf/8pXiJJwYW686aY3vP71YbDBaHk52gKJMqNNFxved999dkskK8ySpVo7VoRv01hYtmpj86I6aDUX0cGsKs8MbU7Nkbkwn3/0UQuR0oXRvC9EJMrMaVhu9ffcfbfWbnBqtHVFWN+6FNGmkxgGEaW0mua0Ehv00YRIjMW7MLfccktpnyyZ1wKJMvPacydNAZT54R0d+G0sNhWWhHjqiSBEl/US4KTVcQRKZGHkwtx6660ZIg1aBqOZE2VGm66rYWNWmAba5CIkpSxRlRFiGEQEIbocKuTQfRmf5SVPf8MNN8gUSSxtgUSZBS0sp4YnUG1ZYe1200OXJTFC0UYhKhwk8KBRJkOkQXM9O3OizOwmjQJDVlibXAQNPB3bn78WzyDifOvd/2pohbqsIQ4UZTJE8gtgX3SizBqW91lhHaspO+7Y7SVzTYkEBua28sDmLw8RZXBheOrHKN5+++0ZIvnZXJlOlFnP4I899pilHpUV1m4X0aaNGAYRkla2oqos7Cg5LJRJF0ZTvwUiUWbtWVAA1ejUdOzzoYpK1NCGjfyHgjIeXzLL2ziV6xcmyqxv891fm7333nvDsZpKUBBbDcHYathqeA4CZSzLy6g5GJkHYfawslu6TJRpMczyxQRQH737bvpRAGV9duz55ZVq7WHjKONdmDwI0zqLe6pIlNmT4U+6rcwKm4od6LNC1WZRBnyx1x2xUmZ597ma2/tOlGm3zVo1OlbjnZoSONZSp7mfbaKMXBgzXZ7lbZ68fZcmyux7Bs73T1bYfkWpMSsMV4k7a5ZsEGX0Hnxmec8voo3+nyizoYmRU+PPCgtK9qvoplAmz/LudzEM7T1RZqjFFucfkRUWEi1HbARlFCIBxJnlXXwtztRBosxMhpxVDFnhhx96KPwE36w9DBa2d5RRltd+ljDP8g6ewv01SJTZn+37etZZYbtvi305h6VD8n5RxodI+aN2WgmHQiTKbH2mdFZYP8G3F433hTI+RMoftdvL1E/vNFFmug0Xl9B4VpheO1yP2av2gjLehcmzvIuvs8U6SJRZzLRzC1YA5Y/VzN1Jq7yVUca7MJnlbZ2VA6lIlDmQiTpRs/4n+A7Xl/FZ3gyRDml1tuuaKNNum63WNB6rWVrZdXwZHyJllnfpOV1NfqLMaqaeuaPGrPDsLowELo0yPkRKF2bmtbJvcYky+56BCf23ZYUniGxtuijKeBcms7ytc3CwFYkyBzt15xVXAOWzwvJB5iIWQhnvwmSW9/yUHtv/iTLHMKNtWeEZxzY7yvgsb77uOONMbVBUoswGJ2WkSnJqGl+2nOjUzIsyGSKNnOPDbJYoc5jz1q51Y1a4nb22Zi6UyRCp1uJHxJcoc0STeX4ojT/BtwVfBhcm/3TJ+Vk6Q/8nyhztZM97VniiL5MuzNGus4qBJcpUGOmQWRRA2U/wyaNhTKJriNEok1neQ14+8+ieKDOPHbcsZZZjNeNQxrK8GCf/dMmWV8jSuiXKLG3hrcgvf4KvxoURz1CUyRBpKxO/AT0SZTYwCWup0JgVruy8HmUUIiE5/3RJpXmPmy1R5rjnt2F0HVlheS4lUYkycmHyT5c0mP6sFiXKnNGZJyvc/YdZgl16UUb4kr/LG0yXl4kyZ3cNlGeFSxdGJd0ok2d5z+4yqhh5okyFkY6apcwKNw63DWW8C5OvOzaaLgsTZXINnGv7wyxyZLBRiTLK8maIlGuo2wKJMt32OUO1ygqHP8xiJggo40Ok/FG7M7RKRg01UWaU2Y63kc4Khz/MIpTxIVL+qN3xLoQ5R5YoM6c1j0NW41lhQxnvwuSP2h3HdK8wigtX6IOw33pJAjts3wiXXX75r77znRyoQ9vfueuuzz3yCAQuzGfvv9/eqL7jjjsMYrY/ltRw9JKj4WyfF5b5/PV3voNg+07CbHwo1tDcPf3Nb37qU5/6tXe968O/93v2/ad/+qeazUMZjhROYsQ6tCYTv89NbF821+JTlUqSwCbbNELQyl/+r69+FZQBbgAd6e8ZbKKzRMY5dKJtQq18xPdseRlc00svucRcLKPlrFIuejYfLAWta4GcxHXtvefebLr1PVGbqXkZwQcKmSqCGCsxRanSpbGJPwkZZ79EmIhwqYmWkoFB5UlggUM0gk2optWPQrMvwmorv6eijNfJNJCuXELbtwi7lHIqzxIssF9rhKkJl+jGP69kyZAlB72MmT70D99c2rRaua0BozXYXmJ8xGR993aQDGmBtMChWCDAh2572uwiBo1oPMpYN+N6HaRiMqcF0gLrWICjUtaRvVzCd+jXfJlQ2Hs5Z8TU21kypAXSAgdqAeGL+Tv2XTmW8b6MeTHpy1QaOtnSAhu3AHv5+fMHaL2qwaMR3Hiebnq8LzOis25VsjYtkBbYuwX0wlqjJux6wIh/1Np3I1soHIky6iaxJhg0L9MCh2sBgxj/zVhwcOTjsPHZ8rbr6/f+SJRRN/V4drimT83TAmfNAgDNZS9/eeOo5WE01jYWjkGZEd009p2FaYG0wGYtUHo0paqVTsYYlElHpjR3lqQFjs8C3qPxP5yokVYGTWNQRr5MZR/SKYm0QFpgyxbg9z1Qz75NT/NooJWagQYBbO8v4suY0PRlbALyOy1wlBZ4+Q/+YPe4QAAPBd3M1A7zZTyAVcJYrwbJkBZIC2zHAjgy3pcxxeTR2KX2vohu/YehjMkyJDPE6ZaetWmBtMAhWsADjc/OaCyDQGAMygBg1oe6TCItkBY4JgsQNAloeKQdfBlGOggExqDMIBg7JtPnWNICR2wBn98FYtqyM7ApjhHRbZbBKGORWPoy3WbN2rTAoVtAvoyPmIAYHmkrHSOie7CDUSbxpdugWZsWOAILBEdGEZN/c9KCJgbbizUvG2GRswk03/3udz/5yU96c912223+clH6WycHGS699NKLLrpo0Y5SeFoAC8iRMWvobQPzZaxQ4ZKINtON+eWHgGG9fbT1rXI2sGgjNriXUPLiiy/2en7ve9/zl8vRv/Irv/LRj37U5L/97W//gz/4g4l9lQb3AgcZf0ZRXgfRjfIrNSzbVjZU75UEHT377LOf/vSnxf/GN76x/pbQ2PwH+w6tWF9+jBNHx09Y/fnXv25iLftrHo1lfw1ovC9j3kbV9h/xdw9owp/F0L9xEtTqS1/60gXFR7XbIZ5//vmg5jq6lfZ55plnpnRdCgzjssvbb78dzu6OakSZHKzXLaqxtk1+jTT6Lcf18Y9/vLGjcYWogcCyF1/SbUOmslFPTUH3XAf7TBwdfwmHv7flP/yRHP2j1v6VG19/JKfNjIPzMkCd+TKGYT4vLSAfRPzWb/1WyW8BQll+3CX+vrT3keI9XX/99RdeeOE999wzRRmTgxv45S9/eYoc3/bxxx/3lyWNJeX9lbWzlDAcBvW2t72tWxpA0MiAhriol19+eYeeVMEAW6OEvRR6XwYFLCPT686MQRnzlKyD0OvQkYMmjVb2zudQmQfHz3plJbGfWbUl0Fx77bVhRJW+dGg1+pKNhG6lYkMFgllz3TwQ1d17Lwx1N++tZcp6degQgh2Y68aVX7aCbRb7l5K7S3wC2OdlfKtefDHmwdlfOTKGMr7LEXQbmrCy3/KWt0yMM0fos34Tn3Np7B0j/N3f/R2J5wcffPDGG2/ELI1sSxeyK1Cje0bIGaGhaYK25S7izjxXMouN2oG2jQ7yXCYCcBsh5mMf+5i6aBy+1dIcO4jTExiwNJoxYP+5TOd77KD9kRk9zPZehUGBfXfI2VW1hVId5RaGleFZR5O2Kh/BhgC1O6BtE7hc+UJ5mTDqmozDxDF2B/MoEBj8HIWuA2fICyAqjA5RgwYY5HtpoS+vGLkM6eybUNjRykvopoNWiKWksQnlZY/STQRKBrP4IYitFBU0KRkatWorHJSXMSG9GRljGxkx9UBXXXXwnz/0oQ/5dovejnxHSXsL4K382I/9GLfNL37xi77c6EG5FUSFOUUIz2JKsZUlcpTg70iIeAfZN6nspZeNve15cECwmC8RTXk47lAaEA+Ih4bBScRNKz0Xhjw9bpVu3URjuEQT+TK4MFVezEk3IyMmOujWsqbWrwb4saz3GHEdP/KRjwTrS2wwt9hALon98R//8bbp93KI4f264RlkhyuuhiLaNBGDESVbKDE2NiFPQI3WoAKnykMXXGr4Fl5RMnQ4konpAJoQGnBZrn41KQmNRVVliap6CSbU87QFTR6AQhPfvNKqvWyDgCzYkwUfYMhrSIhKoORLCJw7+D3nRNqfl9GRPGSW52WqsKbNfeool5tkQVMHZ0cVLqJcQQhz9oIHyGWbBN8WGrYgUAyNzwJhDr60+I0ouy7lm269DUvd6JrxhoblJT2WbWGzfsN3t0DPHIzc7WaXYk0rE9grKnj+DNxr0ksH+WEKGjX3PdKdv8R0vkkweDnjqBd6NP27bdIxqKAMClDSwU9V2ZfnD/bxo/NslXRNxKQ8iYGAoKC7i5ERk/lLU/AyPAXglou08DylPmjihhNQX7qRaQu3I6q4J7Sl2awh95zKJ7g+50fbRp3DYH/9139d6k0nGB0pZH8Dny5TEspkcxiLOBuJ97znPb68DKB8bQ3NzV9sjUOWJwtbt51HT1zpH7H2ylBIeorwulHIWHq9ZtsXkgAR8gy+al66MWgKJ1cqnzGNQRnzkayD0Gv9OMNuNHMTC/hlBBBU2rQNYkyf8GZAqSSd+n6NgUVc03vYh+hcgloYbG8cV2rYUcLYuxGzo21vVRmdcf9sa0WYhsXsw67j+atX7Omnn+7dVG2SVR6Ao9zbHnrCTUtCjBg9cY3Tx22J8TL20Iu/xD7+sibUKi325JNPeiHL0Y1Bk/Iy9GtpE/vuVmMMykw/L8M+9OvP31XCMgrw3zEYYII4lg+rObD5leeryDuQZeBD+o0PREh51vQekBH5ZYKzHCxLHD35BHRDASvnu9zhXnmjyyNbCKStmYJvb9uyeU1J0LCjCcPEc7SPT0CgA5qUG6ZDVFtV2OEBvj3ooHa3AcdNnCmGhRs1ZOxgTZsX7JcBzUufqFHmpgrlVQAChgPmbXQrORhlDLpqRHd0HLxu7xaG+08bQAThLClggnXDh9XMmg4M4SZDj2BKWLI0ocRvqsreu5Gx7JqOTM9y4zF8Cu0ThlBeIjksXEAKO9D8xBK7L5KFpTVKUR0lNbfcjuZUcQ8PM97N313rcZPhe8/Rg06YlEaZgSfcVBonzuRg4TaggYFl0+vXwHbllVc2ahUK/YIMVctdNoZLdCdfBhzgXyUODEYZA7CJw/M3OkQxZxLIxghmDZMtTk+EgL8U4pmhfY+hasSmCmgVsCms3Y6ugya9l0Ey2y9oYhKwRq+oRRnAgpqAolIHf0+iifArOMjhdtUoPJhr0MQxj8B3WKu+F/yaNqfGs22TbgyXUFW+DLRBzIIR0xTTBNTwtyYT232Haey63LqVYIEyLAU+dsafW1BYav5W2di1FYZR+DF6gSEi6xBYUxXi/LD9aiTU8IReOpqw5bCDPuUOZONV2rOjlzDX8l8EN7RFh0pshdP3NWji6ALPsQNrmHofxPmOoCszLMFdDUJWvpQvY/1WujODfRmDrhoAaxt/uAOziG2f6zvkF/0ubZM5opzuwBTWPfL5TJzLkErUGP2qRcmaG2z9WILOU46idHQaeunIJoDsBGj62A4Mkt/xjneEkhGXHhpQz5BLcIPAesCdPnHCGq+VBoUTJ2ANsBvWuZp0E5VxVreQmtrGoMn7MghZNmJCemUH5XjY0r6QVXKyzU99eQbosFdD7YjL0mcxIWEd1Etmqfm2GqPgBlEwVN5g6/v1nEsIL2/Fg4ASlUL+QqDgNR9KB2jAi2EnezQM/k6H/LkmDjnAa2MKTE5W8K9rnMRy5S90LylN1Bg0eV+m3uEY7MugDfhCB+PcmdJq5fDKknDsomQYVIIX4/m5BbE4do+aTh42Nd6RPH8bHXJDNlLBDa1CJNgmZ3S57pmjJZQNQwZtBFCWu6J8Blf2210SoAEvRjuZhkNncMaJQ7ESaOSzBDcQWOzdDv4uxdBG2L/bkkNr5cuYnwEI1HgbY1DGRJt09Vqp7ji8mOUGaBqyFf3OZ0VyC2JxVOrfwRbun6yPsIZCrrFD1Liq6bs39BvgmNpZgLLEndBvzaXXhOWhnUzb+nDJOpp34gIC+rGUbiABu2cINOvHr1Vq/agD87yXjeESXciXMT+jBmJoNQZlEG19+F5rBhncWpr44yG41v4TBPqbVagadBm2Yrkia/zYth79XRQ5/kbkq9qaDy0PMscheGOnzFR5npgb6Qig7D0S2ahAb2HYsX43BtToFQWDt2TvxAG+4f7R3YVcGADId2StyhNPVs4UlBg0wv7durXVNoZLMHuvwiAGKGgTovLBKGNCKzFM3RgRkMJWLWui8RPmw+f2gtgplyHPTxrCh/dDJft8AXI8YJVw1ig8mKiRR4VBJj2W3gfMZW5FEoxgQevD/mHdN54n5uXV0LD3En38/od/Lp+/zWUIy6ZXQ2MYOnHsf6yE0Ur5DDksIZ+vxXEOTWBGFGaXNAiElMfZuQeHtuWl5jEQJee4Evky1hw0qIKC7tecGmv1opS9OtXI01jIy2b+FTW83EY2KyxfLfPv6Xk50KWc8JqZXksL77/RFjUo5BOaWBeUm3CI3k7hDGO0JhSWGlpJ2SklaEsT67q738buTAJCJNz3znjDQGouZYduUehjnzaZmggvp40OqgYdEFX20s2DQdr6Qu1SGoUlv6xq/PBQwqdRAjxBQqPaZdehBPlBDpfBPqGJv2xsHgSGtyX1i78Q9ou/9m27vvI9SetizK9YWcuhnZW7pXfBeTNBY1PZJVSpXARm9Ty+r7bV4PlFa9WW+qsvTzSuIa+5Z4Zu5Lferevufstaae4J32n90jQJmMs08UKMHiqqww6lcEqC/FINP0ZoVA1ygnk7NlvgNMmNCoelFXQIl4gNKnHZ2FdoGC7LsZf2CU38ZcfApV5AGX5mvAQa7XojaFsDNyMjpppgLLhkZXxOoBR4wmXwfsPzjsBcfxmeKfiG5IlCp762hm4cVEgieDnwE0T4kkE0gQMPNaZI6O7OXlmgl262mloc/tnTCmGypiRHh05c5ZAbxVI4dNYIoBRS1XS9EI/yMgRK/KuMmAajjERXxWNurCE+D+vDMb5EhrwDFYOybi8JOk0xx40h7lzbIBzw7c1EcHqtxhqnB/HSFRCAhNDpS9WnU5u+vI1GYfSxp/vTcQFpGJZTAo37rU2HyvKwQjrQvEZgsGHbxJHE6Z0vRHUP2WYNy9BLjW7wrAk08z5j2gWNlYP0bN6XGQo3Xs5+aW4O9siJZ6uz3K5tOCHlyUqq3GDC0NH6aESmyWg5+52XffU+YuLmMriXY7PGYiifMWEZ0H/GtepN7f/qm5U3Yo0SwLbxa9yZMSgjuRB4UJd1PvP3wzgjNAeL/Ui5p/nLpDdrga1N3MpAU4MyghgmUWFN74Se2g+93MZg0s2d8b1WNj9utvDYuNe1Pm5rHNDoNjhxbaH9OqFToyOjvIzNbGUcM9iX8Y7MoJ4OaMENUhVfVx5sefNZzr8dpGQylxY4lIlDz1J5SrTqGmtHFA71Zeii0p0Z7MuY3BFjONYmnKPD0+ZgFZ8QSJMCnH0pHKsZ1x/XoUwcS6jxs77F6FG+DDhQCTG0GvyXUmiD9L2McMudhuOeqMqzg+kPaLY85OPQLSeucR4Jl/SSAX++Vn8sRRkSS5hUQsFgX8ak23ejflmIBYAYni6nKQ7OAjlxNmWCGC4FMdDyZaANYmqgYDDKyE2qhDFT+ux8s0x5dJ0Qc3AznhNXM2XyZYwZiKnBgcHZX0mXTjXdiDmJtEBaYJsWCNnfxmdMaC6gqd/4g30ZujEAsz68B7VN26VWaYG0wAgLNAZNghgEWqxUEzGNzP5KtO91xEiySVogLXBAFsCrsC1vToY5HL36D/ZlDF/qnaVeDZIhLZAW2JoFesMlcKASYhjaYJQBXwxotmaX1CctkBaYywKN4RLCfYZE7kxvp4NRBonpyPSaNRnSAkdpgZAhqXRnBqOMOTLpzhzlGspBpQVkgcagyfsycFY6HIOzvxYx1TtLUjqJWSzw1a997XfuustEvevd737NVVfNIhYhjz322OcffRTiVVdeecstt3SLRY1/+bZf/sc/8U+uueaaX33nO7uZfe199933jSefpOSnX/e6G264wVftkeau+W/f9z5TgBHdeuut6/zSwO9/+MPW6RNPPHHXb//2Hi1Qdk3QJKDhYB4ngOHxvow5MvZdNvclg1GGxgY0XkrSq1mAuf+ff/I/rDsfPE9XAIj55D0fRw7YEVCmXEmPf+UrcEqT+t4ffOABtdoOygAx0oqxrAMxdGQGN+uVRq636mqc454xjUEZmQNi50Et/FoTvfzZE0/MbscfefWr2xaT9xdm79cEdrghHI668847uaPiU7zh9a9vU3KKYpjUbt2/+YEP9Dq9eB9AQ1CYElMAPadoorbWiy5HEDfedFMAx0ohOBQeYqBZADM6iR1qvOW2XxbQsMi3A7t4MbqHTX+PaQzKeF/Ge1Ad1pxShfXf86//1RQJjW2Z4DZX3/sLjW2nF2oKS1Gfe+QRFvqL6/59vzFu55RifYlu3RDdQMPm//cf+He0JT761AMPKlLWtvz5m2/2kkfThFGSOU7IOLxjgNrn6peYtNss4pxIcCORBHzJ7aCMX5/hPSZteS2G3hvVYJQxR8YDjcyUxCwWkJuAtCUgBrE4JqAGBBu7A2gEMXD+x499XIvp4YceosQ+69zzz/c28/9+gIgmVDSk6zZLtxKjHWHAjuxMt3CrDX5lTZO5eAQxJtDQoFf4YJQxfNGC6+3g0Bk+9Lv/oXcIcrVYpm+//fZefhiubgk0WKO6peNt1YgawQM0gBoeaMrUI3GEbvL/5n2/4dFEOLiEhtiwVKZjjO/+tV+TxTrYyqoAMebbatSjgWaKI1w5EO9olOOaq0SpXwRa6hdCeRnrpRIHBqMM0itFmx7Tv9mQNVt9aEfkZWqa9DqxPJqRHCCml1/MjcRn779f5TyFET074YGGWIObUlsXQIx3qeD0m0FPScrmm3qKFNQLEAO03XZye7Ag2uCVYb7pphuBY4+wQc4RX4JlApq1nzGZj9SxKGe3O6A2cevOrpIXaE9/rWSinjgych9Y9xOleSUbaTYP8P3UU095EBGn7bfyqbYPl6StWgXChsCWlvsjhKKtAoRBzkvoYuglS/eeu+/2mmNqn4Vh4CgmPfH4As7W9/hf/tvn6pkPglO+jLkahga9mg/2ZZAu0WtiTe9I9sWg9To9fPCODKv8Z//pG7oHpUitmy3EIOx5O7GiVuaPaM/TtTwUOI0W3Agv1LyXaMvsaif3SpiLwZImvl8LlIJ8UI9Ra2bJfzNqj0SBf/Sl9cIEIWGP2ZZS/209Yyr1O9aS3qyevzm3GaHjaSsPsLWs25rPUs6G8dusUWapCTsBl4fwUG1tb/jmoco/QPFs3TRChHHdnFarTnuZQ5QEfyPEmBwfOlFCL0RPo52aRt004wjHmJuKy3zqZw/PmLCX92VWOC/TOEPrF9Zk9XpXfMfT1nvvvXf9QQ3tUeFhuT8FQGyYEAH5BJPwC7Y2a4hnqHpt/KULAyfRYndMCtCguXcYzamZnn0zPTkVJYXvuOMO0VsmVnrGhAksaDJbhF63bKAt68YW9VurI9tNGsUOsDAcbq1XXHFF77iUwzNOPHN/p7JCHfzlkv1fPilDiO698Ci8subd32xm7WelPIAY8xe6206s5Y4YsjAIZIDs6prjjqj9x//pU8CB7h8Q5nrUY00ZotqgJBN96u8xKxjN1PPLZu1nTObIeKCZuA4OsfnQrF7v09aP3n237NB7jxUnEKPdq8JeovTM2QYe45DAcz1L73lp3YGM3Jw2D8WL6qAbMc741YV3jiQqPDRsxBeYSy9MEhoJwCikaWAbhDW9IapJa+y9LFwNZfb5jMlnf0sTZMkIC7B7/W1tBHCM6NSatG1Fu/97vPPPv2grhUd33dGw0QLe3evdaWUKxroDwiC64bJNMeBJjpjxGDqcqUfdKz1jwr7lXa5tYqaU997/pwgPbYf6JqH5lEu/eZBDODNF2qC2dK2kA9sPH8Q8Gt1aqaXcggu9CK4uzKvVpWKoRkdDbOsQZSDJQGxcU/CRdRLwi6C19A3DGEn5e//OQ5WZPfBv4XLPz5hsbfG9BVvsSwcQcFDXHStb+xyB3C17l+ygftuY7YVMacVa5zEt/ovx29IX4vzSL74JxcQsmW1v9/l4XswrE3hDBiv0CwFQ/vnXv14OYYRWPGjjgzeEfZAM3SvE87BxeFalJks8HZfwKYTP3O3hGZOPmM4s1syyXm0REJUIaOz46ZTFUdM2OIlslXKtE5LwGqS9goBMZW2AG12SJfGhjWwyESiR0xvRdDAomMIrxP9SjhaUkXEYsuheQuPyreiFydo9YB34EZTTjqlXWICLpINI4QndwB6WZQ9Pe8zn6O1y8Kk8JBrQ9IqeyBD8zDZp2gDGYNugjXmucr/gamRqpZbMbFTedWbxsau15kq2GUvw3qVPxwEQwALF7O1tQyJoft6JV8ZNGYVIXBJ8WeEgywAWJiTsqzCn5dg7GIQy6B/ESo6gRyUdRABlce4ma+BvnvjomIXqMbrt4KK6W5/wPunaz5gYrQAMYrnzMt7PbDNxuKf5bGVbk1nK25Zvm/C2lWr8rFftjTYJM5ZzE2aXssohhGskd7kMalDLSLnN8jM30ObyXHvddaaMoIpLPf3xCYigM134M0dCikHAFGSucOmHOaU7olQ5rQw5mHqK5IXa7vMZE0NiwSlWCh7UQgNuFOvvDDCEm0Njky0X2smxQRry/Ns/Am9sW542Zvr0SzHWhNlUcFQiteCehvD7gIgpsBuy/Joy9cvu4jCIMKVRSV/IDixP68DgDwqhpG9yELQ/g7dmjn9e46z0jMkcGQ808w6jUhpq6M5Ak46bgylcKXaPbP4+X6lGzW220bkwvFAvShZgRu/GiyEQALqhhqVmwBFpUv6iBedN2iCG7lDPgEk4RUmvDr0MQeFZLhstWSkZf1AmYtT+hTWToOFzGTx034XeJvOFS9B7fsZk+BKW6RLj7JapjWFsOPMlv7yDMrtZMvsSbpv+sqRnfMZUCl+6pFReGwCirEUfNpj38PWCEvBBuTI17J/6hQFUeZlLj3q/8v3rqRhZBm/Uqg2UYcbCci0b285VuOdnTAyjfiXNNeYghzuDnwmfqxcnzrycHdKWgzIpfk1IoCe6V4nnrKc5usrGq+HX2Gv4yxCmW/nuWlPvZ37u5/SWA3MhmuisUX/2BuVAFRlunvvUdNEoZ/1CVtHQTntvUUMFboo/ZEgqA4XBz5hMLt/7GjweipY1OvCUpNF/xnVncduC5hsvdMSd07bHOiMlsqjR0GejQJDGsS+tMLcZBU1+LkCfxq5rIF7Qw6AsldMoygobY4opf95EPeKm6USfzwTRb4nXjRo23qJ62xIxyQIdNw95kY1dz1u4z2dMrDAB2PpYQ4/KU2JT5qPNgURPzmJxosxMz/2/Pqb1QbJmjv3cfURYPwdTJlAlZAuERgFey5iNx+T1aKxMSeCVyKWyQTEXo51cNPGW4WxLEO5roRtr2ck1L0AGUXbJLbpRpmdWyglIqunI36JYPHy8tECDm0KZmptNaL7E5YzPmAb/bUnGY0CzPsTQNbGPDMos8vBVlyXBUvAPI7jrDnWAy91lvdTLwUosylK3LZTopQEAwj85Mt3Y+Vr3YEpQGH6/i6gteUKTjkv7607G0L0bO4RMqWJJh+EEaaCwMJRbF3cUcCGAY2hylJc6iIg1DAdklo7xDo6YkMXOMdEQy52XKZX2eE9tTU6XJUtIJa+eTE3jTTv0pd0Vyu0SNbjvsTN77znYx0611XTa2Ndyhf6pB16e5lQ9CoPYfiUGwUYWRoZq45G0bkJRRrnV/X2iUYiyb4219YVtdxTKfSyGoUym+T7lGpAj3CawXqU9cu75GRMjNwwzE4Rs0HJ2sb0t+f7eosJGgpCKRSx/mM3TDU/eTynDaanRtsi8DgYxlBCYdJyy9U1Wo7Wx6REU5h+4iT9igOIBncCz1IrNphPx1AI3wFZb9Fo2DyWanVDO5WquTYkXpTKU8PaWyhuzJEJeq1UcrVa9RG+TFULyeZ8xDY6YDMtr3KRea9YzkCDwC5Ed23h3bRPoAysWgQ+7yiY6xkqVT4Bx6dXgruvFlnIo8Yev2Mbsw0a2vRSyqTibB7KodywMGjJGP0xMXeYgiAEFoGo+eoA+7mg8j6cutkD4R0g6Bi3F/FjKWrEdLhG8itIFbhza4IjJHJnVUIZhhAXNxuApgPc4PC5okHJcrQRQ0E0Ggnt1271LDUMU4G/vVHU7RNYpUIjPpQwr+xAPoq1fab4awSSiDFjJ4SOBuKyEGgyzdE+YEf/bcd6wDJBWZZPuEfkjasqwdjfZY6334MpbnR9LWbtHtUd07W+xe3iPaTWIwTT8XQ6/7ilhP2hLjLCdNUFC4yMnn/LU6Q8K/SmPSoixjgLQmOZs7DVt2G0lwxpSDx47rInBscIoCjGFQJNLS075IzNDkRTM0mwibR2z8FrGuEDMLw+WQWlYjUW1eqJXMvsSReIUVjbxzZegZ3zGNNiXMR+J7yUGVsrkxmh3yLJqYknjjdffi8zjxWny+UXbV2XXHQYBaPxvx7IQcZfkCvUG4WVfKvGKqbCNYN2X51ZQm0QDzqC2R2hOOf8MWEF8PxcUWsxozouqbIBEizU3c3+Gu8yCoQzbL6g07tL/XifoSVQ4NDoLVtJNSPr4iLisFdtBEyu9x8TdxoAGY3VsrRlN6R8SebG6XVAY8vn4KTpb5Zuw1Pwdm40BlGgzcKfSZgNNKGeA/nVEZXDh5OGr78Kz+R6NJrVBDtV3XfKsViJkAeyCn4gOBqN2Sk3WwLwhbjXckesRgAaxuDxCZJBUk6UemSNvcBga/QvpMNE+TAFdqHcI0eMkl0cQhbMILGvH9bKvVtt6xrSCFWwFs6XBiDITOVQBnAj9WBnLTgEncrwjY6c/2EXiF8TACQD5wCHo0Lhb0BxRlniWIxMarnAJfOikYugOUFAoh7akbDACNgGMwlYXfHgJTBNz5N0r+SZ+e6sJ+O4NPtSzkJx6AveqY9bq5cBZPuL0jgz2Ef4OErsd5nmfMQ2OmDCE92XWOS9jQDPLHDD9PAhkM3jUMMnkJuz2zq6QgwM/SwoGlRhz486hCrHGUH4jipiFfe6XYO95kFLOuBJL5gEf7AGPGgwE9557r9fKumDIlqvG6dD+LO0mfYBXbGU5LHoR2uIKBceBWoQDamZwzyxpRvQmKepDTnq0HwyzTkNHNZcdtgI0tSTsFlUj8OB4xj1juuCFF14YMVQfK5Wrc4TAlZsIKEO/lJMp8KewAoMuuXf5xw2Us5dqGkrCvgiDDNsw/DxVpXtoKd7KkxokU+QWMUxyW/45oE8nm8E9s/HLJ6pHmUrdljM79w+CYpbBiMeIW8j+or//3dLGZ0xYT0BTv/EHo4z2J4RNWH1ny01wSl7BApr6Ffo63C4O10oBZZiCEmgEMTZB7P2a8Q4+lWdyD3cRpOajLZC3kxrTHbeVxr3HNBhlMPRx27FmJSVPWuC4LVB6MTZe+TK4MDVejLUajDKIpqV9H7ehc3RpgTNrgY5nTLKJeRs1UDAYZRBtGJYejcydRFrgjFhAvoyN16Cgd+xjnmQb0PSKToa0QFrgcC3QGDTp7K+Nq9LVGOzLIN37MsoGHa41U/O0QFqgtEBj0OR9GYuV7Lts7kum+jK+Vy836bRAWuD4LCBfxryYyohpsC9j0FXpKR2flXNEaYGzYIHGcImBy6sAByohhlaDUSaTMmdhkeUYz7gFGsMlbOIzJHJnem01GGWQmI5Mr1mTIS1wlBaQL2Ojq3RnBqOMRUz2fZR2zEGlBdICWKAxaPK+DDyVDsdglLGIie/KDnLC0gJpgUO0QGPQ5H2Zeodj6jOmQzRf6pwWSAv0WqDNlzGgMSdjqYgJ5Uy0dRM8qF7VkyEtkBY4CAvIl+GX3p759rdNZ/kygEAlxNBwcMREG/DF+oBWr6ZEfqcF0gIHagG/l3Fk5MsAMf4nJXEszMOQO9M73jEo432Z3g6SIS2QFjgIC/i4BEem0ZdhIIARCGAjqnRnLnr/+98/1ATff/HFSP9/zz9vDblUl6qiNvz7zrPP0iC/0wJpgW1a4HvPP/+t85ERjswP/MAP2L7+m7/9W/kyF57f7BbQmDvTCyCDfysPiQIwQZqhoHlWCuHgFBz26pEMaYG0wBYsAL7YtlXEJIhBPR9V1QPNmIhJ8VhAMq+N7CVdVZJEWiAtsHELdG9bbXxBQfdwhqGMnBdzZ3TZ3UfWpgXSAodiARyZbojxAzEEEOj4Kk+PiZisfQAanzqCwcdNxm/aZwzlrZ90WmALFmiDlRCdhHCpXvNhvozJ7XZhGvHFK2RD0sCSwDhphDSC7ZH1VwI9cu+323/pBGg7AzHyJHBeDAS6oUC7frwvgwjrQ11KCapQDiCUiuovibRAWmD7FrDN630ZOTK233ujJD/GMb6M2ltPjXhWaqlWSaQF0gKbtYAhi3kJjUqy3+VYNDKUhSN9GesJcWWX3qPx/aV3462RdFpgOxbo9gnkxaDwCEeGViN9GYGZiEaTWcQU4iYDy/xOC6QFNmIB7wGE3dq4r62wMYhp5B/py0iWd2pUCIFH49NFvirptEBa4CAsMN2LsWGO9GVkI3wZaGGNypNIC6QFDtoCHmIYiM+N1HsxZoFJvow6VrSmkkb7poPTaJYsTAvsxQIWbei7UQdtbWptdzeydRdOQplStIFcR7LGgKZsmCVpgbTAyhbQXT+4LUENbWcIqkZgzQwoo17bCIOeoHpepgXSAhuxgHAEfYw2QJlLval5GVPLtAlQZ6Aj6LFaaS/CS0jaLJl2SDssvQb8fjQ/wG9JerdC/61JGUy8sMznr7/zHQlupBsLaZLlZre0Q9ph0TXghZemtpK5vs/NJQg5HXpblf8Wv1oFIlwmfzBIuEz7BIOEy7RPt0FCrV2qEOtN+cyQlxnsPmWDtEBa4CxZ4P8DiZ0jqdzzKicAAAAASUVORK5CYII=;" vertex="1" parent="1">
          <mxGeometry x="220" y="315" width="116.38" height="90" as="geometry" />
        </mxCell>
        <mxCell id="a6ExKIxHKAcp5drYe8KJ-7" value="AWS Cloud" style="points=[[0,0],[0.25,0],[0.5,0],[0.75,0],[1,0],[1,0.25],[1,0.5],[1,0.75],[1,1],[0.75,1],[0.5,1],[0.25,1],[0,1],[0,0.75],[0,0.5],[0,0.25]];outlineConnect=0;gradientColor=none;html=1;whiteSpace=wrap;fontSize=12;fontStyle=0;container=1;pointerEvents=0;collapsible=0;recursiveResize=0;shape=mxgraph.aws4.group;grIcon=mxgraph.aws4.group_aws_cloud_alt;strokeColor=#232F3E;fillColor=none;verticalAlign=top;align=left;spacingLeft=30;fontColor=#232F3E;dashed=0;" vertex="1" parent="1">
          <mxGeometry x="730" y="200" width="430" height="300" as="geometry" />
        </mxCell>
        <mxCell id="a6ExKIxHKAcp5drYe8KJ-8" value="" style="sketch=0;points=[[0,0,0],[0.25,0,0],[0.5,0,0],[0.75,0,0],[1,0,0],[0,1,0],[0.25,1,0],[0.5,1,0],[0.75,1,0],[1,1,0],[0,0.25,0],[0,0.5,0],[0,0.75,0],[1,0.25,0],[1,0.5,0],[1,0.75,0]];outlineConnect=0;fontColor=#232F3E;gradientColor=#60A337;gradientDirection=north;fillColor=#277116;strokeColor=#ffffff;dashed=0;verticalLabelPosition=bottom;verticalAlign=top;align=center;html=1;fontSize=12;fontStyle=0;aspect=fixed;shape=mxgraph.aws4.resourceIcon;resIcon=mxgraph.aws4.s3;" vertex="1" parent="a6ExKIxHKAcp5drYe8KJ-7">
          <mxGeometry x="70" y="121" width="78" height="78" as="geometry" />
        </mxCell>
        <mxCell id="a6ExKIxHKAcp5drYe8KJ-9" value="" style="sketch=0;points=[[0,0,0],[0.25,0,0],[0.5,0,0],[0.75,0,0],[1,0,0],[0,1,0],[0.25,1,0],[0.5,1,0],[0.75,1,0],[1,1,0],[0,0.25,0],[0,0.5,0],[0,0.75,0],[1,0.25,0],[1,0.5,0],[1,0.75,0]];outlineConnect=0;fontColor=#232F3E;gradientColor=#945DF2;gradientDirection=north;fillColor=#5A30B5;strokeColor=#ffffff;dashed=0;verticalLabelPosition=bottom;verticalAlign=top;align=center;html=1;fontSize=12;fontStyle=0;aspect=fixed;shape=mxgraph.aws4.resourceIcon;resIcon=mxgraph.aws4.redshift;" vertex="1" parent="a6ExKIxHKAcp5drYe8KJ-7">
          <mxGeometry x="280" y="121" width="78" height="78" as="geometry" />
        </mxCell>
        <mxCell id="a6ExKIxHKAcp5drYe8KJ-12" value="" style="endArrow=classic;html=1;rounded=0;exitX=1;exitY=0.5;exitDx=0;exitDy=0;" edge="1" parent="a6ExKIxHKAcp5drYe8KJ-7">
          <mxGeometry width="50" height="50" relative="1" as="geometry">
            <mxPoint x="148" y="159.5" as="sourcePoint" />
            <mxPoint x="280" y="160" as="targetPoint" />
          </mxGeometry>
        </mxCell>
        <mxCell id="a6ExKIxHKAcp5drYe8KJ-15" value="COPY" style="edgeLabel;html=1;align=center;verticalAlign=middle;resizable=0;points=[];" vertex="1" connectable="0" parent="a6ExKIxHKAcp5drYe8KJ-12">
          <mxGeometry x="-0.2729" y="4" relative="1" as="geometry">
            <mxPoint as="offset" />
          </mxGeometry>
        </mxCell>
        <mxCell id="a6ExKIxHKAcp5drYe8KJ-16" value="S3" style="text;html=1;align=center;verticalAlign=middle;resizable=0;points=[];autosize=1;strokeColor=none;fillColor=none;" vertex="1" parent="a6ExKIxHKAcp5drYe8KJ-7">
          <mxGeometry x="89" y="199" width="40" height="30" as="geometry" />
        </mxCell>
        <mxCell id="a6ExKIxHKAcp5drYe8KJ-17" value="Redshift" style="text;html=1;align=center;verticalAlign=middle;resizable=0;points=[];autosize=1;strokeColor=none;fillColor=none;" vertex="1" parent="a6ExKIxHKAcp5drYe8KJ-7">
          <mxGeometry x="284" y="199" width="70" height="30" as="geometry" />
        </mxCell>
        <mxCell id="a6ExKIxHKAcp5drYe8KJ-10" value="" style="endArrow=classic;html=1;rounded=0;exitX=1;exitY=0.5;exitDx=0;exitDy=0;entryX=0;entryY=0.5;entryDx=0;entryDy=0;" edge="1" parent="1" source="a6ExKIxHKAcp5drYe8KJ-6" target="a6ExKIxHKAcp5drYe8KJ-5">
          <mxGeometry width="50" height="50" relative="1" as="geometry">
            <mxPoint x="360" y="380" as="sourcePoint" />
            <mxPoint x="410" y="330" as="targetPoint" />
          </mxGeometry>
        </mxCell>
        <mxCell id="a6ExKIxHKAcp5drYe8KJ-14" value="导出" style="edgeLabel;html=1;align=center;verticalAlign=middle;resizable=0;points=[];" vertex="1" connectable="0" parent="a6ExKIxHKAcp5drYe8KJ-10">
          <mxGeometry x="-0.1322" y="-3" relative="1" as="geometry">
            <mxPoint as="offset" />
          </mxGeometry>
        </mxCell>
        <mxCell id="a6ExKIxHKAcp5drYe8KJ-11" value="" style="endArrow=classic;html=1;rounded=0;exitX=1;exitY=0.5;exitDx=0;exitDy=0;entryX=0;entryY=0.5;entryDx=0;entryDy=0;entryPerimeter=0;" edge="1" parent="1" target="a6ExKIxHKAcp5drYe8KJ-8">
          <mxGeometry width="50" height="50" relative="1" as="geometry">
            <mxPoint x="533.75" y="359.5" as="sourcePoint" />
            <mxPoint x="627.75" y="359.5" as="targetPoint" />
          </mxGeometry>
        </mxCell>
        <mxCell id="a6ExKIxHKAcp5drYe8KJ-13" value="Rclone" style="edgeLabel;html=1;align=center;verticalAlign=middle;resizable=0;points=[];" vertex="1" connectable="0" parent="a6ExKIxHKAcp5drYe8KJ-11">
          <mxGeometry x="-0.1568" relative="1" as="geometry">
            <mxPoint as="offset" />
          </mxGeometry>
        </mxCell>
      </root>
    </mxGraphModel>
  </diagram>
  <diagram id="AsIaX3h7u8YF9a4GLa92" name="RDS-CDC-Redshift">
    <mxGraphModel dx="2074" dy="1066" grid="1" gridSize="10" guides="1" tooltips="1" connect="1" arrows="1" fold="1" page="1" pageScale="1" pageWidth="2339" pageHeight="3300" math="0" shadow="0">
      <root>
        <mxCell id="0" />
        <mxCell id="1" parent="0" />
        <mxCell id="GnbDiyQ19ri89odZZVID-6" value="" style="rounded=0;whiteSpace=wrap;html=1;" vertex="1" parent="1">
          <mxGeometry x="503" y="164" width="192" height="336" as="geometry" />
        </mxCell>
        <mxCell id="GnbDiyQ19ri89odZZVID-1" value="Redshift" style="sketch=0;points=[[0,0,0],[0.25,0,0],[0.5,0,0],[0.75,0,0],[1,0,0],[0,1,0],[0.25,1,0],[0.5,1,0],[0.75,1,0],[1,1,0],[0,0.25,0],[0,0.5,0],[0,0.75,0],[1,0.25,0],[1,0.5,0],[1,0.75,0]];outlineConnect=0;fontColor=#232F3E;gradientColor=#945DF2;gradientDirection=north;fillColor=#5A30B5;strokeColor=#ffffff;dashed=0;verticalLabelPosition=bottom;verticalAlign=top;align=center;html=1;fontSize=12;fontStyle=0;aspect=fixed;shape=mxgraph.aws4.resourceIcon;resIcon=mxgraph.aws4.redshift;" vertex="1" parent="1">
          <mxGeometry x="1185" y="280" width="78" height="78" as="geometry" />
        </mxCell>
        <mxCell id="GnbDiyQ19ri89odZZVID-3" value="RDS" style="sketch=0;points=[[0,0,0],[0.25,0,0],[0.5,0,0],[0.75,0,0],[1,0,0],[0,1,0],[0.25,1,0],[0.5,1,0],[0.75,1,0],[1,1,0],[0,0.25,0],[0,0.5,0],[0,0.75,0],[1,0.25,0],[1,0.5,0],[1,0.75,0]];outlineConnect=0;fontColor=#232F3E;gradientColor=#4D72F3;gradientDirection=north;fillColor=#3334B9;strokeColor=#ffffff;dashed=0;verticalLabelPosition=bottom;verticalAlign=top;align=center;html=1;fontSize=12;fontStyle=0;aspect=fixed;shape=mxgraph.aws4.resourceIcon;resIcon=mxgraph.aws4.rds;" vertex="1" parent="1">
          <mxGeometry x="270" y="280" width="78" height="78" as="geometry" />
        </mxCell>
        <mxCell id="GnbDiyQ19ri89odZZVID-5" value="DMS" style="sketch=0;points=[[0,0,0],[0.25,0,0],[0.5,0,0],[0.75,0,0],[1,0,0],[0,1,0],[0.25,1,0],[0.5,1,0],[0.75,1,0],[1,1,0],[0,0.25,0],[0,0.5,0],[0,0.75,0],[1,0.25,0],[1,0.5,0],[1,0.75,0]];outlineConnect=0;fontColor=#232F3E;gradientColor=#4D72F3;gradientDirection=north;fillColor=#3334B9;strokeColor=#ffffff;dashed=0;verticalLabelPosition=bottom;verticalAlign=top;align=center;html=1;fontSize=12;fontStyle=0;aspect=fixed;shape=mxgraph.aws4.resourceIcon;resIcon=mxgraph.aws4.database_migration_service;" vertex="1" parent="1">
          <mxGeometry x="560" y="202" width="78" height="78" as="geometry" />
        </mxCell>
        <mxCell id="GnbDiyQ19ri89odZZVID-7" value="Flink CDC" style="rounded=0;whiteSpace=wrap;html=1;" vertex="1" parent="1">
          <mxGeometry x="539" y="320" width="120" height="60" as="geometry" />
        </mxCell>
        <mxCell id="GnbDiyQ19ri89odZZVID-8" value="&lt;pre&gt;MSK Connector&lt;/pre&gt;" style="rounded=0;whiteSpace=wrap;html=1;" vertex="1" parent="1">
          <mxGeometry x="539" y="410" width="120" height="60" as="geometry" />
        </mxCell>
        <mxCell id="GnbDiyQ19ri89odZZVID-9" value="MSK" style="sketch=0;points=[[0,0,0],[0.25,0,0],[0.5,0,0],[0.75,0,0],[1,0,0],[0,1,0],[0.25,1,0],[0.5,1,0],[0.75,1,0],[1,1,0],[0,0.25,0],[0,0.5,0],[0,0.75,0],[1,0.25,0],[1,0.5,0],[1,0.75,0]];outlineConnect=0;fontColor=#232F3E;gradientColor=#945DF2;gradientDirection=north;fillColor=#5A30B5;strokeColor=#ffffff;dashed=0;verticalLabelPosition=bottom;verticalAlign=top;align=center;html=1;fontSize=12;fontStyle=0;aspect=fixed;shape=mxgraph.aws4.resourceIcon;resIcon=mxgraph.aws4.managed_streaming_for_kafka;" vertex="1" parent="1">
          <mxGeometry x="845" y="280" width="78" height="78" as="geometry" />
        </mxCell>
        <mxCell id="GnbDiyQ19ri89odZZVID-10" value="EMR" style="sketch=0;points=[[0,0,0],[0.25,0,0],[0.5,0,0],[0.75,0,0],[1,0,0],[0,1,0],[0.25,1,0],[0.5,1,0],[0.75,1,0],[1,1,0],[0,0.25,0],[0,0.5,0],[0,0.75,0],[1,0.25,0],[1,0.5,0],[1,0.75,0]];outlineConnect=0;fontColor=#232F3E;gradientColor=#945DF2;gradientDirection=north;fillColor=#5A30B5;strokeColor=#ffffff;dashed=0;verticalLabelPosition=bottom;verticalAlign=top;align=center;html=1;fontSize=12;fontStyle=0;aspect=fixed;shape=mxgraph.aws4.resourceIcon;resIcon=mxgraph.aws4.emr;" vertex="1" parent="1">
          <mxGeometry x="1005" y="280" width="78" height="78" as="geometry" />
        </mxCell>
        <mxCell id="GnbDiyQ19ri89odZZVID-11" value="&lt;font style=&quot;font-size: 14px;&quot;&gt;Data Sync Tools&lt;/font&gt;" style="text;html=1;align=center;verticalAlign=middle;resizable=0;points=[];autosize=1;strokeColor=none;fillColor=none;" vertex="1" parent="1">
          <mxGeometry x="550" y="508" width="120" height="30" as="geometry" />
        </mxCell>
        <mxCell id="GnbDiyQ19ri89odZZVID-12" value="" style="endArrow=classic;html=1;rounded=0;" edge="1" parent="1">
          <mxGeometry width="50" height="50" relative="1" as="geometry">
            <mxPoint x="350" y="320" as="sourcePoint" />
            <mxPoint x="490" y="320" as="targetPoint" />
          </mxGeometry>
        </mxCell>
        <mxCell id="GnbDiyQ19ri89odZZVID-13" value="Binlog" style="edgeLabel;html=1;align=center;verticalAlign=middle;resizable=0;points=[];" vertex="1" connectable="0" parent="GnbDiyQ19ri89odZZVID-12">
          <mxGeometry x="-0.07" y="3" relative="1" as="geometry">
            <mxPoint as="offset" />
          </mxGeometry>
        </mxCell>
        <mxCell id="GnbDiyQ19ri89odZZVID-14" value="" style="endArrow=classic;html=1;rounded=0;" edge="1" parent="1">
          <mxGeometry width="50" height="50" relative="1" as="geometry">
            <mxPoint x="695" y="320" as="sourcePoint" />
            <mxPoint x="835" y="320" as="targetPoint" />
          </mxGeometry>
        </mxCell>
        <mxCell id="GnbDiyQ19ri89odZZVID-17" value="Binlog&amp;nbsp; json" style="edgeLabel;html=1;align=center;verticalAlign=middle;resizable=0;points=[];" vertex="1" connectable="0" parent="GnbDiyQ19ri89odZZVID-14">
          <mxGeometry x="-0.1607" y="1" relative="1" as="geometry">
            <mxPoint as="offset" />
          </mxGeometry>
        </mxCell>
        <mxCell id="GnbDiyQ19ri89odZZVID-15" value="" style="endArrow=classic;html=1;rounded=0;" edge="1" parent="1">
          <mxGeometry width="50" height="50" relative="1" as="geometry">
            <mxPoint x="1085" y="319" as="sourcePoint" />
            <mxPoint x="1185" y="319" as="targetPoint" />
          </mxGeometry>
        </mxCell>
        <mxCell id="GnbDiyQ19ri89odZZVID-16" value="" style="endArrow=classic;html=1;rounded=0;" edge="1" parent="1">
          <mxGeometry width="50" height="50" relative="1" as="geometry">
            <mxPoint x="923" y="320" as="sourcePoint" />
            <mxPoint x="1005" y="320" as="targetPoint" />
          </mxGeometry>
        </mxCell>
      </root>
    </mxGraphModel>
  </diagram>
</mxfile>
